# xmcd
#
# Track frame offsets:
#	150
#	23569
#	45358
#	65483
#	74224
#	96681
#	117572
#	136765
#	160060
#	176040
#	197682
#	220117
#	243681
#
# Disc length: 3584 seconds
#
# Revision: 0
# Processed by: cddbd v1.4PL0 Copyright (c) Steve Scherf et al.
# Submitted via: dBpowerAMP V4.0
#
DISCID=c30dfe0d
DTITLE=Quang Dung - Vuon tinh
DYEAR=1900
DGENRE=
TTITLE0=Vuon tinh
TTITLE1=Vi ngot doi moi
TTITLE2=Xa vang
TTITLE3=Vi sao le loi
TTITLE4=Trong dang em ngoi
TTITLE5=Thanh pho toi yeu
TTITLE6=Dong song mua thu
TTITLE7=Hat mua buon
TTITLE8=Hoai niem dau yeu
TTITLE9=Nho mua Sai Gon
TTITLE10=Nua trai tim yeu nguoi
TTITLE11=Dung buon ta hoi
TTITLE12=Con do chut hong phai
EXTD=
EXTT0=
EXTT1=
EXTT2=
EXTT3=
EXTT4=
EXTT5=
EXTT6=
EXTT7=
EXTT8=
EXTT9=
EXTT10=
EXTT11=
EXTT12=
PLAYORDER=
